<svg width="20" height="20" viewBox="0 0 20 20" fill="none" xmlns="http://www.w3.org/2000/svg">
    <path d="M17.5585 14.025L15.8335 12.2583C15.4624 11.9056 14.9944 11.6719 14.4895 11.5872C13.9846 11.5026 13.4659 11.5709 13.0002 11.7833L12.2502 11.0333C13.134 9.85238 13.5376 8.38052 13.3798 6.91398C13.222 5.44745 12.5145 4.09514 11.3997 3.12928C10.2849 2.16343 8.8456 1.65575 7.37154 1.70844C5.89748 1.76113 4.49811 2.37028 3.45513 3.41326C2.41215 4.45624 1.803 5.85561 1.75031 7.32967C1.69762 8.80373 2.2053 10.243 3.17115 11.3578C4.13701 12.4726 5.48932 13.1801 6.95585 13.3379C8.42239 13.4957 9.89425 13.0921 11.0752 12.2083L11.8168 12.95C11.5794 13.4163 11.4943 13.9454 11.5735 14.4627C11.6528 14.98 11.8924 15.4594 12.2585 15.8333L14.0252 17.6C14.4939 18.0681 15.1293 18.3311 15.7918 18.3311C16.4543 18.3311 17.0897 18.0681 17.5585 17.6C17.7966 17.3671 17.9858 17.0891 18.115 16.7821C18.2441 16.4752 18.3107 16.1455 18.3107 15.8125C18.3107 15.4794 18.2441 15.1498 18.115 14.8428C17.9858 14.5358 17.7966 14.2578 17.5585 14.025ZM10.4918 10.4916C9.90868 11.0733 9.16624 11.4691 8.35827 11.629C7.55031 11.7889 6.71307 11.7058 5.95232 11.3901C5.19158 11.0744 4.54146 10.5404 4.08408 9.8554C3.62671 9.17042 3.3826 8.36526 3.3826 7.54162C3.3826 6.71798 3.62671 5.91281 4.08408 5.22784C4.54146 4.54286 5.19158 4.0088 5.95232 3.69313C6.71307 3.37745 7.55031 3.29433 8.35827 3.45424C9.16624 3.61416 9.90868 4.00995 10.4918 4.59162C10.8798 4.97867 11.1877 5.43846 11.3978 5.94467C11.6078 6.45088 11.7159 6.99356 11.7159 7.54162C11.7159 8.08968 11.6078 8.63236 11.3978 9.13857C11.1877 9.64477 10.8798 10.1046 10.4918 10.4916ZM16.3835 16.3833C16.306 16.4614 16.2139 16.5234 16.1123 16.5657C16.0108 16.608 15.9018 16.6298 15.7918 16.6298C15.6818 16.6298 15.5729 16.608 15.4713 16.5657C15.3698 16.5234 15.2776 16.4614 15.2002 16.3833L13.4335 14.6166C13.3554 14.5391 13.2934 14.447 13.2511 14.3454C13.2088 14.2439 13.187 14.135 13.187 14.025C13.187 13.9149 13.2088 13.806 13.2511 13.7045C13.2934 13.6029 13.3554 13.5108 13.4335 13.4333C13.511 13.3552 13.6031 13.2932 13.7047 13.2509C13.8062 13.2086 13.9151 13.1868 14.0252 13.1868C14.1352 13.1868 14.2441 13.2086 14.3456 13.2509C14.4472 13.2932 14.5394 13.3552 14.6168 13.4333L16.3835 15.2C16.4616 15.2774 16.5236 15.3696 16.5659 15.4711C16.6082 15.5727 16.63 15.6816 16.63 15.7916C16.63 15.9016 16.6082 16.0105 16.5659 16.1121C16.5236 16.2136 16.4616 16.3058 16.3835 16.3833Z" fill="#4CBB5E" stroke="#4CBB5E" stroke-width="0.2"/>
</svg>
