<svg width="18" height="17" viewBox="0 0 18 17" fill="none" xmlns="http://www.w3.org/2000/svg">
    <path d="M12.3142 7.19231C12.3142 4.66887 10.2491 2.61538 7.71135 2.61538C5.1736 2.61538 3.10847 4.66887 3.10847 7.19231C3.10847 9.71575 5.1736 11.7692 7.71135 11.7692C10.2491 11.7692 12.3142 9.71575 12.3142 7.19231ZM17.5747 15.6923C17.5747 16.4075 16.9788 17 16.2596 17C15.9102 17 15.5712 16.857 15.3349 16.6118L11.8108 13.1178C10.6087 13.9453 9.1703 14.3846 7.71135 14.3846C3.71466 14.3846 0.478256 11.1665 0.478256 7.19231C0.478256 3.21815 3.71466 0 7.71135 0C11.708 0 14.9444 3.21815 14.9444 7.19231C14.9444 8.64303 14.5027 10.0733 13.6704 11.2686L17.1945 14.7728C17.4308 15.0078 17.5747 15.345 17.5747 15.6923Z" fill="white" fill-opacity="0.5"/>
</svg>
